<?xml version="1.0" encoding="utf-8"?>
<!-- Generator: Adobe Illustrator 16.0.0, SVG Export Plug-In . SVG Version: 6.00 Build 0)  -->
<!DOCTYPE svg PUBLIC "-//W3C//DTD SVG 1.1//EN" "http://www.w3.org/Graphics/SVG/1.1/DTD/svg11.dtd">
<svg version="1.1" id="Capa_1" xmlns="http://www.w3.org/2000/svg" xmlns:xlink="http://www.w3.org/1999/xlink" x="0px" y="0px"
	 width="109.86px" height="185.002px" viewBox="0 0 109.86 185.002" enable-background="new 0 0 109.86 185.002"
	 xml:space="preserve">
<g>
	<path fill-rule="evenodd" clip-rule="evenodd" fill="#FFFFFF" d="M108.754,0c1.165,0.899,1.354,2.009,0.827,3.354
		c-2.699,6.901-3.013,14.077-2.988,21.416c0.13,43.51,0.09,87.023,0.015,130.532c-0.005,3.794,1.166,7.229,2.326,10.666
		c0.946,2.798,0.707,5.606,0.836,8.404c0.045,1.065-0.582,2.431-1.359,3.207c-1.304,1.305-1.408,2.733-1.483,4.387
		c-0.045,1.025-0.688,2.021-1.065,3.037c-3.008,0-6.02,0-9.032,0c-0.374-1.016-0.842-2.001-1.096-3.042
		c-0.249-1.016,0.104-2.439-0.474-3.072c-1.861-2.037-2.997-4.158-2.146-6.971c-25.583,0-50.921,0-76.37,0
		c0.531,2.19,0.361,4.207-1.185,5.681c-1.34,1.275-1.424,2.709-1.501,4.362c-0.048,1.025-0.686,2.026-1.056,3.042
		c-3.013,0-6.022,0-9.035,0c-0.373-1.016-1.016-2.012-1.065-3.037c-0.077-1.658-0.187-3.087-1.517-4.367
		c-1.422-1.374-1.237-3.266-1.319-5.193c-0.214-4.949,2.084-9.236,3.05-13.862c0.12-0.577,0.058-1.2,0.058-1.802
		c-0.003-47.238,0-94.478-0.043-141.715c0-1.415-0.346-2.851-0.707-4.233c-0.649-2.5-1.371-4.981-2.181-7.434
		C-0.205,1.994-0.093,0.899,1.077,0C36.971,0,72.863,0,108.754,0z M52.932,127.97c0-37.766,0-75.409,0-113.02
		c-15.408,0-30.673,0-45.959,0c0,37.728,0,75.334,0,113.02C22.334,127.97,37.593,127.97,52.932,127.97z M102.809,127.995
		c0-37.787,0-75.431,0-113.029c-15.405,0-30.667,0-45.924,0c0,37.738,0,75.339,0,113.029
		C72.221,127.995,87.438,127.995,102.809,127.995z M102.868,156.82c0-8.351,0-16.566,0-24.856c-32.007,0-63.924,0-95.903,0
		c0,8.325,0,16.541,0,24.856C38.933,156.82,70.807,156.82,102.868,156.82z M4.476,3.807c-0.095,1.33,0.453,1.755,1.688,1.73
		c3.189-0.069,6.382-0.029,9.57-0.029c29.196,0.002,58.395,0,87.588,0.02c1.19,0,2.201-0.027,2.021-1.72
		C71.719,3.807,38.108,3.807,4.476,3.807z M4.339,167.918c33.842,0,67.444,0,101.034,0c0.125-1.728-0.921-1.708-2.091-1.708
		c-28.467,0.015-56.931,0.015-85.397,0.015c-4.327,0-8.654,0-13.028,0C4.672,166.824,4.521,167.321,4.339,167.918z M66.574,11.129
		c11.741,0.002,23.478-0.013,35.219,0c1.15,0.002,2.102-0.07,1.832-1.708c-32.47,0-64.951,0-97.432,0
		c-0.241,1.83,0.924,1.703,2.049,1.7 M103.646,162.426c0.278-1.812-0.861-1.713-1.992-1.713c-17.99,0.011-35.979,0.011-53.975,0.011
		c-13.178,0-26.355,0-39.533-0.011c-1.146,0-2.275-0.074-1.939,1.713C38.688,162.426,71.155,162.426,103.646,162.426z
		 M10.508,181.213c-0.493-2.579,0.286-4.406,2.182-6.015c1.321-1.126,0.495-3.048-1.33-3.276c-1.601-0.199-3.262-0.274-4.853-0.065
		c-0.931,0.125-2.253,0.732-2.521,1.449c-0.257,0.678,0.416,2.012,1.073,2.654c1.027,1.011,1.636,2.012,1.488,3.466
		c-0.057,0.567,0.05,1.149,0.087,1.787C7.921,181.213,9.044,181.213,10.508,181.213z M103.466,181.199
		c-0.632-2.56,0.13-4.332,2.002-5.896c1.419-1.181,0.622-3.167-1.295-3.386c-1.777-0.205-3.614-0.229-5.393-0.04
		c-0.736,0.079-1.758,0.796-1.981,1.454c-0.215,0.632,0.189,1.872,0.742,2.295c1.588,1.205,2.105,2.669,1.887,4.551
		c-0.039,0.324,0.109,0.668,0.18,1.021C100.832,181.199,101.952,181.199,103.466,181.199z"/>
	<path fill-rule="evenodd" clip-rule="evenodd" fill="#FFFFFF" d="M50.322,114.685c-0.005,5.458-2.621,9.237-7.295,10.507
		c-1.088,0.293-2.253,0.418-3.386,0.423c-6.44,0.045-12.879,0.069-19.319,0.024c-5.313-0.039-9.219-2.867-10.385-7.519
		c-0.301-1.204-0.355-2.499-0.355-3.754c-0.021-28.531-0.021-57.058-0.01-85.586c0.002-5.799,2.646-9.588,7.586-10.853
		c0.976-0.249,2.021-0.299,3.037-0.304c6.5-0.025,12.998-0.045,19.499-0.005c6.558,0.044,10.591,4.003,10.615,10.581
		c0.06,14.442,0.021,28.887,0.018,43.331 M13.331,71.622c0,14.388-0.005,28.773,0.003,43.158c0.002,4.651,2.35,7.035,6.956,7.051
		c6.44,0.025,12.879,0.021,19.319,0c4.621-0.016,6.996-2.399,6.998-7.021c0.005-28.83,0.005-57.66,0-86.492
		c-0.002-4.555-2.465-6.986-7.058-6.996c-6.321-0.013-12.64-0.008-18.961,0c-4.927,0.005-7.255,2.354-7.258,7.327
		C13.329,42.971,13.331,57.296,13.331,71.622z"/>
	<path fill-rule="evenodd" clip-rule="evenodd" fill="#FFFFFF" d="M59.504,71.538c0-14.385-0.015-28.773,0.01-43.158
		c0.006-5.486,2.734-9.269,7.569-10.472c1.09-0.271,2.265-0.281,3.4-0.283c6.259-0.028,12.519-0.028,18.782-0.01
		c6.99,0.02,10.983,3.961,10.988,10.964c0.03,28.653,0.035,57.304,0.021,85.957c-0.005,7.036-4.088,11.104-11.119,11.104
		c-6.976-0.005-13.967,0.08-20.933-0.249c-4.82-0.224-8.534-4.227-8.614-9.071c-0.159-10.353-0.095-20.704-0.114-31.057
		c-0.01-4.575,0-9.148,0-13.725C59.499,71.538,59.499,71.538,59.504,71.538z M96.49,71.552c0.005,0,0.005,0,0.01,0
		c0-14.323,0.005-28.646,0-42.969c-0.005-4.93-2.351-7.255-7.329-7.262c-6.319-0.011-12.638-0.016-18.956,0.002
		c-4.557,0.01-6.991,2.465-6.991,7.061c0,28.766,0,57.533,0.01,86.301c0,4.82,2.355,7.146,7.23,7.15
		c6.259,0.005,12.518,0,18.776-0.015c4.989-0.011,7.245-2.28,7.25-7.3C96.495,100.201,96.49,85.875,96.49,71.552z"/>
	<path fill-rule="evenodd" clip-rule="evenodd" fill="#FFFFFF" d="M54.729,154.629c-13.847,0-27.694,0.005-41.542,0
		c-2.756,0-3.174-0.404-3.182-3.093c-0.013-4.695-0.022-9.391-0.013-14.086c0.003-2.48,0.509-3.003,2.929-3.003
		c27.995,0,55.989,0,83.982,0.01c2.375,0,2.913,0.523,2.918,2.823c0.021,4.815,0.015,9.636,0.005,14.45
		c-0.01,2.436-0.498,2.898-3.018,2.898C82.782,154.634,68.756,154.629,54.729,154.629z M96.057,138.367c-27.516,0-54.866,0-82.229,0
		c0,4.217,0,8.281,0,12.374c27.466,0,54.818,0,82.229,0C96.057,146.563,96.057,142.54,96.057,138.367z"/>
	<path fill-rule="evenodd" clip-rule="evenodd" fill="#FFFFFF" d="M37.551,80.08c2.608,0.04,4.797,2.32,4.715,4.922
		c-0.077,2.521-2.306,4.643-4.842,4.615c-2.58-0.029-4.801-2.353-4.718-4.932C32.79,82.156,35.011,80.042,37.551,80.08z"/>
	<path fill-rule="evenodd" clip-rule="evenodd" fill="#FFFFFF" d="M67.565,84.833c0-2.555,2.126-4.698,4.69-4.735
		c2.629-0.04,4.86,2.148,4.85,4.76c-0.005,2.529-2.171,4.728-4.69,4.76C69.801,89.649,67.561,87.444,67.565,84.833z"/>
	<path fill-rule="evenodd" clip-rule="evenodd" fill="#FFFFFF" d="M31.588,149.316c-2.51-0.015-4.735-2.216-4.771-4.715
		c-0.037-2.545,2.266-4.83,4.851-4.811c2.519,0.02,4.745,2.216,4.772,4.711C36.468,147.06,34.177,149.332,31.588,149.316z"/>
	<path fill-rule="evenodd" clip-rule="evenodd" fill="#FFFFFF" d="M78.177,149.301c-2.515-0.021-4.74-2.211-4.771-4.705
		c-0.035-2.55,2.251-4.82,4.84-4.806c2.505,0.015,4.74,2.221,4.775,4.7C83.061,147.036,80.756,149.316,78.177,149.301z"/>
</g>
</svg>
