<?xml version="1.0" encoding="utf-8"?>
<!-- Generator: Adobe Illustrator 16.0.0, SVG Export Plug-In . SVG Version: 6.00 Build 0)  -->
<!DOCTYPE svg PUBLIC "-//W3C//DTD SVG 1.1//EN" "http://www.w3.org/Graphics/SVG/1.1/DTD/svg11.dtd">
<svg version="1.1" id="Layer_1" xmlns="http://www.w3.org/2000/svg" xmlns:xlink="http://www.w3.org/1999/xlink" x="0px" y="0px"
	 width="283px" height="283px" viewBox="0 -54 283 283" enable-background="new 0 -54 283 283" xml:space="preserve">
<g>
	<path fill="#FFFFFF" d="M281.712,110.688c0,24.862,0,49.722,0,74.586c-2.082,3.956-5.756,3.379-9.313,3.529
		c0,1.225,0,2.202,0,3.182c0,6.959,0.027,13.918-0.013,20.876c-0.023,4.32-1.749,6.307-5.602,6.356
		c-5.644,0.075-11.294,0.082-16.938-0.006c-3.624-0.051-5.36-1.975-5.395-5.903c-0.06-7.058-0.02-14.117-0.023-21.178
		c0-1.058,0-2.117,0-3.185c-68.63,0-136.883,0-205.352,0c0,8.188,0.03,16.127-0.012,24.064c-0.023,4.296-1.731,6.169-5.672,6.213
		c-5.466,0.059-10.933,0.052-16.396,0.002c-4.103-0.035-5.846-1.922-5.873-6.364c-0.042-6.959-0.011-13.918-0.013-20.877
		c0-1.047,0-2.094,0-3.276c-3.753,0.065-7.239,0.41-9.313-3.435c0-24.863,0-49.723,0-74.587c2.01-4.103,5.68-3.529,9.316-3.598
		c0-5.073-0.073-9.92,0.016-14.767c0.177-9.548,3.828-17.154,11.371-22.065c2.19-1.424,2.712-2.86,2.706-5.368
		c-0.069-24.067-0.024-48.132-0.063-72.197c-0.004-2.871,0.095-5.583,2.507-7.297c-3.952-11.364-2.603-19.897,4.008-25.945
		c6.402-5.856,14.883-6.894,21.813-1.876c9.264,6.71,10.947,16.151,6.803,27.11c54.411,0,108.63,0,162.922,0
		c-3.646-11.998-1.667-20.734,5.871-26.543c6.437-4.955,15.566-4.804,21.724,0.362c7.556,6.343,9.216,14.961,5.064,26.889
		c2.412,1.718,2.511,4.428,2.506,7.301c-0.037,24.362-0.045,48.725,0.045,73.09c0.004,1.231,0.629,3.045,1.493,3.591
		c8.45,5.334,12.441,13.335,12.491,23.845c0.022,4.55,0.004,9.099,0.004,13.872C276.032,107.157,279.701,106.584,281.712,110.688z
		 M272.322,117.549c-87.188,0-174.12,0-261.048,0c0,20.371,0,40.511,0,60.719c87.099,0,174.036,0,261.048,0
		C272.322,157.953,272.322,137.879,272.322,117.549z M248.892-4.667c-71.606,0-142.884,0-214.173,0c0,23.794,0,47.385,0,71.162
		c3.218,0,6.212,0,9.207,0c2.94,0,5.876,0,8.809,0c-1.233-3.207-2.989-5.94-3.259-8.839c-0.62-6.575-0.915-13.25-0.6-19.842
		c0.527-11.057,10.047-21.522,20.166-21.88c13.464-0.472,26.959-0.606,40.424-0.196c11.384,0.349,19.665,7.292,21.958,18.978
		c2.023,10.301,2.596,20.951-3.052,30.591c-0.16,0.272-0.107,0.691-0.15,1.008c9.115,0,18.084,0,27.337,0
		c-0.841-1.72-1.611-3.148-2.255-4.643c-3.139-7.257-2.641-15.02-1.97-22.581c1.238-13.913,9.792-22.833,22.704-23.354
		c12.645-0.511,25.316-0.143,37.975-0.086c1.712,0.007,3.455,0.287,5.13,0.705c9.475,2.363,17.159,11.612,17.677,22.627
		c0.367,7.826,1.134,15.706-2.175,23.118c-0.616,1.386-1.323,2.725-2.05,4.21c6.248,0,12.213,0,18.298,0
		C248.892,42.596,248.892,19.068,248.892-4.667z M20.46,106.912c81.02,0,161.75,0,242.624,0c0-4.303,0.002-8.371,0-12.437
		c-0.004-11.866-5.429-17.816-16.247-17.819c-42.814,0-85.628,0-128.442,0c-27.691,0-55.385-0.023-83.076,0.015
		c-8.439,0.009-14.385,5.896-14.816,14.814C20.261,96.532,20.46,101.605,20.46,106.912z M90.647,25.757c0,0.002,0,0.007,0,0.009
		c-6.188,0-12.38-0.002-18.569,0.007c-0.455,0-0.909,0.067-1.362,0.106c-6.723,0.568-12.063,5.949-12.667,13.226
		c-0.352,4.234-0.437,8.548-0.131,12.783c0.643,8.879,6.25,14.501,14.423,14.577c12.107,0.11,24.216,0.127,36.321-0.007
		c8.52-0.094,14.27-6.556,14.459-15.891c0.054-2.682,0.021-5.366,0.008-8.047c-0.051-10.461-5.69-16.667-15.275-16.755
		C102.119,25.713,96.384,25.757,90.647,25.757z M193.015,25.754c0,0.014,0,0.029,0,0.044c-6.282,0-12.569-0.191-18.843,0.049
		c-7.928,0.304-13.378,6.367-13.749,15.018c-0.146,3.471-0.146,6.959,0,10.431c0.361,8.601,5.866,14.935,13.732,15.097
		c12.646,0.262,25.308,0.265,37.954-0.014c7.5-0.166,12.723-5.891,13.45-14.032c0.28-3.153,0.206-6.349,0.193-9.525
		c-0.043-10.898-5.605-17.002-15.533-17.062C204.483,25.728,198.747,25.754,193.015,25.754z M43.833-15.094
		c5.085-0.019,9.244-4.493,9.298-10.003c0.055-5.533-4.317-10.333-9.383-10.303c-5.149,0.034-9.296,4.709-9.221,10.395
		C34.6-19.417,38.678-15.074,43.833-15.094z M239.595-15.097c5.165,0.061,9.279-4.24,9.387-9.818
		c0.11-5.705-3.968-10.388-9.136-10.486c-5.046-0.096-9.464,4.671-9.464,10.211C230.382-19.687,234.521-15.155,239.595-15.097z
		 M29.583,208.979c0-6.83,0-13.415,0-20.052c-3.099,0-6.028,0-8.941,0c0,6.813,0,13.385,0,20.052
		C23.66,208.979,26.46,208.979,29.583,208.979z M254.012,188.84c0,6.943,0,13.521,0,20.034c3.111,0,5.976,0,8.887,0
		c0-6.782,0-13.367,0-20.034C259.837,188.84,256.965,188.84,254.012,188.84z"/>
	<path fill="#FFFFFF" d="M160.489,158.09c31.508,0,63.016,0,94.524,0c0.82,0,1.64-0.027,2.455,0.013
		c3.495,0.167,5.598,2.135,5.551,5.164c-0.049,3.028-2.138,4.878-5.68,5.026c-0.455,0.021-0.907,0.007-1.363,0.007
		c-63.744,0.003-127.491,0.003-191.233,0c-4.658,0-6.898-1.709-6.855-5.173c0.044-3.421,2.263-5.034,6.983-5.034
		C96.745,158.09,128.618,158.09,160.489,158.09z"/>
	<path fill="#FFFFFF" d="M34.331,158.097c2.903,0.006,5.811-0.08,8.712,0.027c3.39,0.124,5.266,1.979,5.296,5.014
		c0.029,3.052-1.838,5.053-5.188,5.119c-5.807,0.114-11.619,0.114-17.426-0.006c-3.27-0.065-5.29-2.218-5.231-5.146
		c0.059-2.926,2.074-4.798,5.396-5.003c0.18-0.013,0.362-0.01,0.543-0.01C29.067,158.093,31.698,158.093,34.331,158.097z"/>
</g>
</svg>
