<?xml version="1.0" encoding="utf-8"?>
<!-- Generator: Adobe Illustrator 16.0.0, SVG Export Plug-In . SVG Version: 6.00 Build 0)  -->
<!DOCTYPE svg PUBLIC "-//W3C//DTD SVG 1.1//EN" "http://www.w3.org/Graphics/SVG/1.1/DTD/svg11.dtd">
<svg version="1.1" id="Capa_1" xmlns="http://www.w3.org/2000/svg" xmlns:xlink="http://www.w3.org/1999/xlink" x="0px" y="0px"
	 width="235.083px" height="188.996px" viewBox="0 0 235.083 188.996" enable-background="new 0 0 235.083 188.996"
	 xml:space="preserve">
<g>
	<path fill-rule="evenodd" clip-rule="evenodd" d="M235.083,173.886c-1.405,1.86-2.892,3.671-4.149,5.617
		c-0.443,0.685-0.443,1.728-0.451,2.607c-0.035,6.877-0.016,6.877-6.979,6.873c-2.296,0-4.593,0.035-6.882-0.015
		c-2.424-0.051-3.245-0.911-3.374-3.359c-0.012-0.304-0.023-0.611,0-0.919c0.21-2.876-0.112-5.355-2.519-7.597
		c-2.467-2.297-2.623-5.555-1.288-8.948c-61.316,0-122.442,0-183.791,0c1.775,4.464,0.208,7.967-3.049,11.101
		c-0.621,0.595-0.719,1.93-0.732,2.927c-0.075,6.811-0.046,6.811-6.832,6.811c-2.219,0-4.436,0.02-6.658-0.008
		c-2.873-0.03-3.713-0.852-3.764-3.658c-0.01-0.611-0.051-1.226,0.006-1.833c0.216-2.207-0.087-4.095-1.981-5.702
		c-1.154-0.973-1.777-2.581-2.641-3.896c0-25.26,0-50.51,0-75.762c0.126-0.349,0.308-0.689,0.37-1.052
		c0.95-5.415,3.373-9.907,7.899-13.219c0.626-0.456,0.98-1.664,0.99-2.528c0.08-7.646,0.059-15.296,0.059-22.946
		c0.002-7.035-0.029-14.072-0.004-21.107c0.01-2.896,0.806-3.631,3.606-3.917c1.967-0.198,3.955-0.451,5.87-0.936
		c6.651-1.683,13.669-7.424,13.961-15.388c0.128-3.62,2.356-5.632,5.309-7.119c6.712-3.388,14.02-4.713,21.329-5.9
		c16.713-2.711,33.57-3.713,50.485-3.951c22.972-0.319,45.868,0.535,68.556,4.435c6.48,1.111,12.914,2.478,18.826,5.542
		c2.764,1.434,4.896,3.353,5.049,6.801c0.051,1.283,0.245,2.62,0.696,3.811c3.138,8.279,9.758,11.743,18.052,12.638
		c4.32,0.47,4.714,0.749,4.714,5.183c0,14.224,0.019,28.449-0.031,42.678c-0.008,1.438,0.479,2.292,1.561,3.262
		c1.79,1.607,3.612,3.378,4.783,5.44c1.362,2.401,2.032,5.192,3.005,7.817C235.083,123.072,235.083,148.475,235.083,173.886z
		 M229.903,122.743c0-7.858,0.21-15.438-0.112-22.992c-0.117-2.628-1.199-5.374-2.425-7.76c-1.607-3.125-4.169-4.756-8.131-4.738
		c-32.963,0.149-65.937,0.092-98.907,0.092c-35.341,0-70.682-0.018-106.022,0.048c-1.255,0.002-2.73,0.535-3.723,1.307
		c-3.913,3.043-5.34,7.367-5.416,12.126c-0.111,6.809-0.033,13.616-0.016,20.424c0.002,0.5,0.158,1.006,0.239,1.494
		C80.25,122.743,154.963,122.743,229.903,122.743z M123.5,82.027c0-6.967,0.035-13.688-0.02-20.412
		c-0.031-3.403,1.315-6.043,3.955-8.111c3.238-2.543,6.99-3.964,11.015-4.026c14.222-0.22,28.447-0.302,42.669-0.204
		c3.075,0.023,6.29,0.596,9.182,1.631c6.757,2.413,9.154,6.063,8.921,12.449c-0.202,5.426-0.043,10.858-0.043,16.292
		c0,0.796,0,1.598,0,2.378c3.126,0,5.858,0,8.68,0c0-11.47,0-22.825,0-33.647c-4.044-1.566-7.99-2.639-11.481-4.54
		c-5.994-3.258-10.478-8.031-11.404-15.15c-0.296-2.32-1.339-3.61-3.281-4.47c-1.117-0.494-2.234-1.004-3.386-1.396
		c-9.852-3.347-20.115-4.565-30.39-5.389c-25.144-2.014-50.268-1.977-75.286,1.769c-6.5,0.975-12.957,2.154-19.019,4.895
		c-2.12,0.959-3.436,2.251-3.546,4.787c-0.066,1.549-0.656,3.147-1.313,4.583c-2.141,4.682-5.635,8.235-10.203,10.472
		c-3.581,1.749-7.446,2.919-11.29,4.391c0,11.003,0,22.354,0,33.624c2.964,0,5.751,0,8.645,0c0-6.769,0.02-13.343-0.008-19.916
		c-0.014-3.05,0.81-5.745,3.136-7.819c3.446-3.083,7.61-4.687,12.134-4.757c14.069-0.218,28.14-0.249,42.214-0.243
		c4.227,0.004,8.368,0.709,12.14,2.857c3.958,2.249,6.375,5.363,6.099,10.172c-0.116,2.135-0.027,4.283-0.031,6.424
		c0,4.414,0,8.829,0,13.357C115.625,82.027,119.417,82.027,123.5,82.027z M229.783,162.743c0-11.669,0-23.162,0-34.59
		c-74.959,0-149.734,0-224.513,0c0,11.614,0,23.05,0,34.59C80.145,162.743,154.867,162.743,229.783,162.743z M14.72,38.49
		c0,14.635,0,29.047,0,43.529c2.427,0,4.688,0,7.125,0c0.038-0.85,0.097-1.596,0.101-2.339c0.006-11.021-0.004-22.039,0.006-33.058
		c0.004-3.05,0.722-3.556,3.689-4.067c3.054-0.525,6.222-1.086,8.997-2.376c5.72-2.658,10.032-6.714,10.563-13.566
		c0.192-2.483,1.512-4.355,3.589-5.556c2.104-1.214,4.285-2.397,6.575-3.172c11.4-3.857,23.293-5.116,35.179-5.936
		c24.318-1.679,48.621-1.512,72.795,2.164c6.959,1.057,13.864,2.356,20.317,5.365c3.783,1.765,6.298,4.273,6.52,8.843
		c0.093,1.841,1.147,3.832,2.276,5.387c3.947,5.476,9.587,8.155,16.184,8.817c4.032,0.405,4.492,0.763,4.5,4.881
		c0.008,10.713,0.008,21.424,0.012,32.14c0,0.808,0,1.613,0,2.455c2.627,0,4.884,0,7.231,0c0-14.563,0-28.979,0-43.459
		c-1.168-0.205-2.215-0.407-3.262-0.572c-10.132-1.584-18.604-9.775-19.89-19.55c-0.275-2.133-1.124-3.367-2.945-4.125
		c-1.697-0.703-3.355-1.633-5.123-1.968c-9.368-1.788-18.709-4.038-28.175-4.951c-13.151-1.269-26.4-1.83-39.618-2.096
		c-21.364-0.424-42.693,0.535-63.771,4.342c-5.813,1.049-11.441,3.145-17.124,4.869c-1.643,0.498-2.366,1.724-2.572,3.608
		c-0.639,5.799-3.429,10.507-7.938,14.232C25.576,35.958,20.456,37.757,14.72,38.49z M106.463,82.043c0-6.234,0-12.266,0-18.293
		c0-5.089-1.175-6.778-6.032-8.288c-1.596-0.492-3.285-0.933-4.932-0.942c-14.459-0.073-28.924-0.161-43.382,0.063
		c-2.699,0.041-5.461,1.264-8.039,2.311c-2.133,0.869-3.056,2.742-3.015,5.188c0.105,5.967,0.027,11.938,0.041,17.906
		c0.004,0.656,0.111,1.313,0.173,2.057C63.006,82.043,84.563,82.043,106.463,82.043z M193.971,82.043
		c0-6.275,0.012-12.313-0.008-18.35c-0.02-5.091-1.207-6.75-6.068-8.247c-1.592-0.486-3.281-0.921-4.927-0.931
		c-14.46-0.069-28.923-0.177-43.375,0.082c-2.825,0.051-5.705,1.446-8.406,2.583c-1.872,0.784-2.636,2.568-2.608,4.717
		c0.074,6.045,0.031,12.087,0.043,18.13c0,0.657,0.09,1.317,0.141,2.016C150.527,82.043,172.078,82.043,193.971,82.043z
		 M16.773,183.729c-0.848-4.161,0.419-7.181,3.524-9.836c2.113-1.81,0.747-5.297-2.195-5.651c-3.224-0.385-6.567-0.393-9.785,0.004
		c-3.012,0.382-4.299,4.006-2.008,5.831c3.116,2.479,3.799,5.433,3.501,9.01c-0.012,0.176,0.197,0.378,0.343,0.643
		C12.186,183.729,14.224,183.729,16.773,183.729z M225.443,183.679c0-2.043-0.463-4.036,0.132-5.628
		c0.596-1.576,2.34-2.686,3.438-4.106c1.892-2.468,0.373-5.62-2.954-5.9c-2.729-0.226-5.531-0.335-8.221,0.051
		c-1.347,0.198-2.903,1.374-3.658,2.558c-0.962,1.514-0.063,3.207,1.354,4.176c2.525,1.721,3.272,4.044,2.931,6.924
		c-0.07,0.58,0.063,1.195,0.104,1.927C220.772,183.679,222.874,183.679,225.443,183.679z"/>
	<path fill-rule="evenodd" clip-rule="evenodd" d="M62.671,156.877c-15.604,0-31.203,0-46.805,0
		c-3.553-0.003-4.291-0.739-4.297-4.301c-0.01-4.892-0.02-9.788,0.004-14.681c0.016-3.099,0.86-3.927,3.972-3.935
		c31.435,0,62.864,0,94.297,0c3.281,0,4.032,0.771,4.036,4.063c0.004,4.967,0.004,9.941-0.012,14.911
		c-0.012,3.134-0.79,3.924-3.936,3.924c-15.755,0.008-31.506,0.008-47.26,0.008C62.671,156.866,62.671,156.874,62.671,156.877z
		 M16.948,151.568c30.62,0,61.087,0,91.653,0c0-4.16,0-8.165,0-12.318c-30.601,0-61.068,0-91.653,0
		C16.948,143.406,16.948,147.42,16.948,151.568z"/>
	<path fill-rule="evenodd" clip-rule="evenodd" d="M172.42,156.866c-15.604,0-31.208,0-46.808-0.008
		c-3.771,0-4.394-0.619-4.397-4.383c0-4.967-0.016-9.94,0.004-14.915c0.008-2.709,0.86-3.592,3.546-3.592
		c31.666-0.016,63.328-0.016,94.995,0c2.821,0,3.721,0.883,3.744,3.686c0.039,5.052,0.035,10.1,0.02,15.148
		c-0.004,3.246-0.829,4.071-4.067,4.071c-15.678,0.003-31.359,0.003-47.036,0.003C172.42,156.874,172.42,156.866,172.42,156.866z
		 M218.145,139.262c-30.616,0-61.087,0-91.668,0c0,4.156,0,8.17,0,12.314c30.604,0,61.079,0,91.668,0
		C218.145,147.412,218.145,143.403,218.145,139.262z"/>
</g>
</svg>
